# Blender v2.91.0 OBJ File: 'CowboyHat.blend'
# www.blender.org
mtllib CowboyHat.mtl
o Cube
v 0.651539 0.200952 -0.651539
v 1.000000 -1.000000 -1.000000
v 0.651539 0.200952 0.651539
v 1.000000 -1.000000 1.000000
v -0.651539 0.200952 -0.651539
v -1.000000 -1.000000 -1.000000
v -0.651539 0.200952 0.651539
v -1.000000 -1.000000 1.000000
v -1.000000 -0.823154 2.000000
v -1.000000 -0.568165 2.000000
v 1.000000 -0.568165 2.000000
v 1.000000 -0.823154 2.000000
v 1.000000 -0.823154 -2.000000
v -1.000000 -0.823154 -2.000000
v 1.000000 -0.568165 -2.000000
v -1.000000 -0.568165 -2.000000
v 1.000000 -0.745011 1.000000
v -1.000000 -0.745011 1.000000
v 1.000000 -0.745011 -1.000000
v -1.000000 -0.745011 -1.000000
v 2.000000 -0.568165 -1.000000
v 2.000000 -0.823154 -1.000000
v 2.000000 -0.568165 1.000000
v 2.000000 -0.823154 1.000000
v -2.000000 -0.823154 -1.000000
v -2.000000 -0.823154 1.000000
v -2.000000 -0.568165 1.000000
v -2.000000 -0.568165 -1.000000
v -1.000000 -0.917672 -1.000000
v -1.000000 -0.917672 1.000000
v 1.000000 -0.917672 -1.000000
v 1.000000 -0.917672 1.000000
vt 0.652232 0.527232
vt 0.847768 0.527232
vt 0.847768 0.722768
vt 0.652232 0.722768
vt 0.625000 0.000000
vt 0.375000 0.000000
vt 0.375000 0.000000
vt 0.625000 0.000000
vt 0.625000 0.250000
vt 0.375000 0.250000
vt 0.375000 0.250000
vt 0.625000 0.250000
vt 0.125000 0.500000
vt 0.375000 0.500000
vt 0.375000 0.500000
vt 0.125000 0.500000
vt 0.625000 0.500000
vt 0.625000 0.750000
vt 0.625000 0.750000
vt 0.625000 0.500000
vt 0.625000 0.250000
vt 0.375000 0.250000
vt 0.375000 0.750000
vt 0.625000 0.750000
vt 0.625000 1.000000
vt 0.375000 1.000000
vt 0.125000 0.750000
vt 0.375000 0.750000
vt 0.125000 0.750000
vt 0.875000 0.750000
vt 0.875000 0.750000
vt 0.625000 0.500000
vt 0.375000 0.500000
vt 0.125000 0.500000
vt 0.875000 0.500000
vt 0.875000 0.500000
vt 0.375000 0.500000
vt 0.375000 0.750000
vt 0.375000 0.000000
vt 0.625000 0.000000
vt 0.125000 0.750000
vt 0.125000 0.500000
vt 0.875000 0.500000
vt 0.875000 0.750000
vt 0.000000 0.000000
vt 0.000000 0.000000
vt 0.000000 0.000000
vt 0.000000 0.000000
vt 0.000000 0.000000
vt 0.000000 0.000000
vt 0.000000 0.000000
vt 0.000000 0.000000
vt 0.000000 0.000000
vt 0.000000 0.000000
vt 0.000000 0.000000
vt 0.000000 0.000000
vt 0.000000 0.000000
vt 0.000000 0.000000
vt 0.000000 0.000000
vt 0.000000 0.000000
vt 0.000000 0.000000
vt 0.000000 0.000000
vt 0.375000 0.750000
vt 0.125000 0.750000
vn 0.0000 1.0000 0.0000
vn -1.0000 0.0000 0.0000
vn 0.0000 0.0000 -1.0000
vn 0.0000 0.0000 1.0000
vn -0.1741 0.9847 0.0000
vn 0.0000 -0.9847 0.1741
vn 0.0000 0.9847 -0.1741
vn 1.0000 0.0000 0.0000
vn 0.0000 -0.9847 -0.1741
vn 0.0000 0.9847 0.1741
vn 0.0000 0.3457 0.9384
vn 0.9384 0.3457 0.0000
vn -0.9384 0.3457 0.0000
vn 0.0000 0.3457 -0.9384
vn 0.1741 -0.9847 0.0000
vn -0.1741 -0.9847 0.0000
vn 0.1741 0.9847 0.0000
vn 0.7071 0.0000 -0.7071
vn -0.1716 -0.9701 0.1716
vn 0.1716 0.9701 -0.1716
vn -0.7071 0.0000 -0.7071
vn 0.1716 -0.9701 0.1716
vn -0.1716 0.9701 -0.1716
vn 0.1716 -0.9701 -0.1716
vn -0.7071 0.0000 0.7071
vn -0.1716 0.9701 0.1716
vn 0.1716 0.9701 0.1716
vn -0.1716 -0.9701 -0.1716
vn 0.0000 -1.0000 0.0000
usemtl Material
s off
f 1/1/1 5/2/1 7/3/1 3/4/1
f 18/5/2 8/6/2 9/7/2 10/8/2
f 20/9/3 6/10/3 25/11/3 28/12/3
f 6/13/4 2/14/4 31/15/4 29/16/4
f 19/17/5 17/18/5 23/19/5 21/20/5
f 6/10/2 20/9/2 16/21/2 14/22/2
f 12/23/4 11/24/4 10/25/4 9/26/4
f 8/27/6 4/28/6 12/23/6 9/29/6
f 17/18/7 18/30/7 10/31/7 11/24/7
f 4/28/8 17/18/8 11/24/8 12/23/8
f 14/22/3 16/21/3 15/32/3 13/33/3
f 2/14/9 6/13/9 14/34/9 13/33/9
f 20/35/10 19/17/10 15/32/10 16/36/10
f 19/17/8 2/14/8 13/33/8 15/32/8
f 3/4/11 7/3/11 18/30/11 17/18/11
f 1/1/12 3/4/12 17/18/12 19/17/12
f 7/3/13 5/2/13 20/35/13 18/30/13
f 5/2/14 1/1/14 19/17/14 20/35/14
f 22/37/8 21/20/8 23/19/8 24/38/8
f 17/18/4 4/28/4 24/38/4 23/19/4
f 2/14/3 19/17/3 21/20/3 22/37/3
f 4/28/15 2/14/15 22/37/15 24/38/15
f 26/39/2 27/40/2 28/12/2 25/11/2
f 8/6/4 18/5/4 27/40/4 26/39/4
f 6/13/16 8/27/16 26/41/16 25/42/16
f 18/30/17 20/35/17 28/43/17 27/44/17
f 10/8/18 9/7/18 26/39/18 27/40/18
f 26/45/19 8/46/19 9/47/19
f 27/48/20 10/49/20 18/50/20
f 12/23/21 11/24/21 23/19/21 24/38/21
f 23/51/22 11/52/22 17/53/22
f 24/54/23 4/55/23 12/56/23
f 19/17/24 15/32/24 21/20/24
f 15/32/25 13/33/25 22/37/25 21/20/25
f 13/33/26 2/14/26 22/37/26
f 16/21/21 14/22/21 25/11/21 28/12/21
f 28/57/27 20/58/27 16/59/27
f 25/60/28 14/61/28 6/62/28
f 29/16/29 31/15/29 32/63/29 30/64/29
f 4/28/3 8/27/3 30/64/3 32/63/3
f 8/27/8 6/13/8 29/16/8 30/64/8
f 2/14/2 4/28/2 32/63/2 31/15/2
