# Blender 4.0.2
# www.blender.org
mtllib Revolver.mtl
o Cylinder
v 0.000000 0.147994 2.845383
v 0.000000 0.147994 0.845383
v 1.105506 0.710899 2.845383
v 1.105506 0.710899 0.845383
v 1.105506 1.836709 2.845383
v 1.105506 1.836708 0.845383
v 0.000000 2.399613 2.845382
v -0.000000 2.399613 0.845383
v -1.105506 1.836709 2.845383
v -1.105506 1.836708 0.845383
v -1.105506 0.710899 2.845383
v -1.105506 0.710899 0.845383
v 0.560086 -1.580024 4.636133
v 0.560086 -2.513332 4.585999
v 0.560086 -1.142492 6.207510
v 0.560086 -2.381161 6.868365
v -0.560086 -1.580024 4.636133
v -0.560086 -2.513332 4.585999
v -0.560086 -1.142492 6.207510
v -0.560086 -2.381161 6.868365
v 0.560086 -0.285658 5.687940
v -0.560086 -0.285658 5.687940
v 0.560086 0.315948 5.177486
v -0.560086 0.315948 5.177486
v 0.553128 0.601560 4.719355
v -0.560086 0.589406 4.703493
v 0.560086 -1.037667 4.503962
v -0.560086 -1.037667 4.503962
v 0.560086 -0.663941 4.239620
v -0.560086 -0.663941 4.239620
v 0.560086 -0.413272 3.761069
v -0.560086 -0.413272 3.761069
v 0.427722 -0.428106 3.524372
v -0.347269 -0.427539 3.523484
v 0.427722 -0.460582 3.158431
v -0.347269 -0.460582 3.158431
v 0.560086 -0.189948 2.968042
v -0.560086 -0.189948 2.968042
v 0.560086 -0.107911 2.320859
v -0.560086 -0.107911 2.320859
v 0.560086 -0.012200 1.035608
v -0.560086 -0.012200 1.035608
v 0.560086 0.097183 0.962686
v -0.560086 0.097183 0.962686
v 0.560086 0.202008 0.634537
v -0.560086 0.202008 0.634537
v 0.560086 0.534715 0.502366
v -0.560086 0.534715 0.502366
v 0.560086 0.835518 0.429444
v -0.560086 0.835518 0.429444
v 0.560086 1.067957 0.256255
v -0.560086 1.067957 0.256255
v 0.560086 1.236589 0.265370
v -0.560086 1.236589 0.265370
v 0.560086 1.236589 -0.208624
v -0.560086 1.236589 -0.208624
v 0.560086 1.309511 -0.267872
v -0.560086 1.309511 -0.267872
v 0.560086 1.405221 -0.258757
v -0.560086 1.405221 -0.258757
v 0.560086 1.423452 -0.463850
v -0.560086 1.423452 -0.463850
v 0.560086 1.437124 -4.023355
v -0.560086 1.437124 -4.023355
v 0.560086 1.537392 -4.023355
v -0.560086 1.537392 -4.023355
v 0.560086 1.582968 -6.826296
v -0.560086 1.582968 -6.826296
v 0.560086 2.271170 -6.780720
v -0.560086 2.271170 -6.780720
v 0.560086 2.284843 -6.443455
v -0.560086 2.284843 -6.443455
v 0.560086 2.462590 -6.320398
v -0.560086 2.462590 -6.320398
v 0.560086 2.512724 -6.097076
v -0.560086 2.512724 -6.097076
v 0.560086 2.485378 -5.964905
v -0.560086 2.485378 -5.964905
v 0.560086 2.298516 -5.878310
v -0.560086 2.298516 -5.878310
v 0.560086 2.271170 -3.130062
v -0.560086 2.271170 -3.130062
v 0.560086 2.243824 0.238024
v -0.560086 2.243824 0.238024
v 0.560086 2.353207 0.242582
v -0.560086 2.353207 0.242582
v 0.560086 2.426129 1.154107
v -0.560086 2.426129 1.154107
v 0.560086 2.421571 2.630778
v -0.560086 2.421571 2.630778
v 0.560086 2.266612 3.022734
v -0.560086 2.266612 3.022734
v 0.560086 2.143556 3.150348
v -0.560086 2.143556 3.150348
v 0.560086 2.120768 3.446593
v -0.560086 2.120768 3.446593
v 0.560086 2.303073 3.783857
v -0.560086 2.303073 3.783857
v 0.560086 2.398783 4.102891
v -0.560086 2.398783 4.102891
v 0.560086 2.398783 4.166698
v -0.560086 2.398783 4.166698
v 0.560086 2.316746 4.157583
v -0.560086 2.316746 4.157583
v 0.560086 2.138998 3.806646
v -0.560086 2.138998 3.806646
v 0.560086 1.737927 3.514958
v -0.560086 1.737927 3.514958
v 0.560086 1.523719 3.569649
v -0.560086 1.523719 3.569649
v 0.560086 1.300395 3.592437
v -0.560086 1.300395 3.592437
v 0.560086 1.140878 3.592437
v -0.560086 1.140878 3.592437
v 0.560086 1.040610 3.742839
v -0.560086 1.040610 3.742839
v 0.560086 0.899324 3.884125
v -0.560086 0.899324 3.884125
v 0.560086 0.717019 3.975278
v -0.560086 0.717019 3.975278
v 0.560086 0.730692 4.285196
v -0.560086 0.730692 4.285196
v -0.134452 -0.207088 2.084839
v -0.134452 -0.088716 2.293730
v -0.134452 -0.210886 1.704402
v -0.134452 -0.031745 1.552481
v 0.295359 -0.207088 2.084839
v 0.295359 -0.088716 2.293730
v 0.295359 -0.210886 1.704402
v 0.295359 -0.031745 1.552481
v -0.134452 -0.305837 1.974696
v 0.295359 -0.305837 1.974696
v -0.134452 -0.457758 1.906332
v 0.295359 -0.457758 1.906332
v -0.134452 -0.655255 1.921524
v 0.295359 -0.655255 1.921524
v -0.134452 -0.845156 2.035464
v 0.295359 -0.845156 2.035464
v -0.134452 -0.985683 2.270942
v 0.295359 -0.985683 2.270942
v -0.134452 -1.031260 2.692523
v 0.295359 -1.031260 2.692523
v -0.134452 -0.959097 2.981172
v 0.295359 -0.959097 2.981172
v -0.134452 -0.735013 3.152083
v 0.295359 -0.735013 3.152083
v -0.134452 -0.450162 1.753777
v 0.295359 -0.450162 1.753777
v -0.134452 -0.655255 1.776565
v 0.295359 -0.655255 1.776565
v -0.134452 -0.875540 1.871515
v 0.295359 -0.875540 1.871515
v -0.134452 -1.019866 2.072811
v 0.295359 -1.019866 2.072811
v -0.134452 -1.111018 2.319682
v 0.295359 -1.111018 2.319682
v -0.134452 -1.133806 2.680494
v 0.295359 -1.133806 2.680494
v -0.134452 -1.092028 2.999528
v 0.295359 -1.092028 2.999528
v -0.134452 -0.852752 3.250198
v 0.295359 -0.852752 3.250198
v -0.134452 -0.670447 3.318562
v 0.295359 -0.670447 3.318562
vn 0.4537 -0.8911 -0.0000
vn 1.0000 -0.0000 -0.0000
vn 0.4537 0.8911 -0.0000
vn -0.4537 0.8911 -0.0000
vn -0.0000 -0.0000 -1.0000
vn -1.0000 -0.0000 -0.0000
vn -0.4537 -0.8911 -0.0000
vn -0.0000 -0.0000 1.0000
vn -0.0000 0.9634 -0.2682
vn -0.0000 0.4707 0.8823
vn -0.0000 -0.9983 0.0578
vn -0.0000 0.0536 -0.9986
vn -0.0000 0.5185 0.8551
vn -0.0000 0.6470 0.7625
vn -0.0083 0.8575 0.5144
vn -0.0000 -0.2368 -0.9716
vn -0.0000 -0.5775 -0.8164
vn -0.0000 -0.8858 -0.4640
vn -0.0003 -0.9981 0.0612
vn -0.0004 -0.9960 0.0893
vn -0.0000 -0.5754 -0.8179
vn -0.0000 -0.9921 -0.1258
vn -0.0000 -0.9972 -0.0743
vn -0.0000 -0.5547 -0.8321
vn -0.0000 -0.9526 -0.3043
vn -0.0000 -0.3692 -0.9294
vn -0.0000 -0.2356 -0.9719
vn -0.0000 -0.5975 -0.8019
vn -0.0000 0.0540 -0.9985
vn -0.0000 -1.0000 -0.0000
vn -0.0000 -0.6306 -0.7761
vn -0.0000 0.0948 -0.9955
vn -0.0000 -0.9961 -0.0885
vn -0.0000 -1.0000 -0.0038
vn -0.0000 -0.9999 -0.0163
vn -0.0000 0.0661 -0.9978
vn -0.0000 0.9992 -0.0405
vn -0.0000 0.5692 -0.8222
vn -0.0000 0.9757 -0.2190
vn -0.0000 0.9793 0.2026
vn -0.0000 0.4205 0.9073
vn -0.0000 1.0000 0.0099
vn -0.0000 1.0000 0.0081
vn -0.0000 0.0416 -0.9991
vn -0.0000 0.9968 -0.0797
vn -0.0000 1.0000 0.0031
vn -0.0000 0.9300 0.3677
vn -0.0000 0.7198 0.6941
vn -0.0000 0.9971 0.0767
vn -0.0000 0.8797 -0.4755
vn -0.0000 0.9578 -0.2873
vn -0.0000 1.0000 -0.0000
vn -0.0000 -0.1104 0.9939
vn -0.0000 -0.8921 0.4518
vn -0.0000 -0.5882 0.8087
vn -0.0000 0.2474 0.9689
vn -0.0000 0.1015 0.9948
vn -0.0000 0.8321 0.5547
vn -0.0000 0.7071 0.7071
vn -0.0000 0.4472 0.8944
vn -0.0000 0.9990 -0.0441
vn -0.0073 0.9532 0.3023
vn 1.0000 0.0010 0.0005
vn 0.9977 -0.0673 -0.0111
vn -0.9940 -0.1078 -0.0177
vn -0.0000 -0.6468 -0.7627
vn -0.0000 -0.8700 0.4930
vn -0.0000 -1.0000 0.0100
vn -0.0000 0.9971 0.0766
vn -0.0000 0.7446 -0.6675
vn -0.0000 0.4104 -0.9119
vn -0.0000 -0.0767 -0.9971
vn -0.0000 -0.5145 -0.8575
vn -0.0000 -0.8587 -0.5125
vn -0.0000 -0.9942 -0.1075
vn -0.0000 -0.9701 0.2425
vn -0.0000 -0.6064 0.7951
vn -0.0000 -0.0231 0.9997
vn -0.0000 0.2021 0.9794
vn -0.0000 0.1104 0.9939
vn -0.0000 0.3958 0.9183
vn -0.0000 0.8127 0.5827
vn -0.0000 0.9381 0.3464
vn -0.0000 0.9980 0.0630
vn -0.0000 0.9915 -0.1298
vn -0.0000 0.7234 -0.6905
vn -0.0000 0.3511 -0.9363
vn 0.0009 0.6462 -0.7632
vn -0.9559 0.2891 -0.0527
vn 0.7417 0.6597 -0.1211
vt 1.000000 0.500000
vt 1.000000 1.000000
vt 0.833333 1.000000
vt 0.833333 0.500000
vt 0.666667 1.000000
vt 0.666667 0.500000
vt 0.500000 1.000000
vt 0.500000 0.500000
vt 0.333333 1.000000
vt 0.333333 0.500000
vt 0.457846 0.370000
vt 0.250000 0.490000
vt 0.042154 0.370000
vt 0.042154 0.130000
vt 0.250000 0.010000
vt 0.457846 0.130000
vt 0.166667 1.000000
vt 0.166667 0.500000
vt -0.000000 1.000000
vt -0.000000 0.500000
vt 0.750000 0.490000
vt 0.957846 0.370000
vt 0.957846 0.130000
vt 0.750000 0.010000
vt 0.542154 0.130000
vt 0.542154 0.370000
vt 0.625000 0.500000
vt 0.875000 0.500000
vt 0.875000 0.750000
vt 0.625000 0.750000
vt 0.375000 0.750000
vt 0.625000 1.000000
vt 0.375000 1.000000
vt 0.375000 0.000000
vt 0.625000 0.000000
vt 0.625000 0.250000
vt 0.375000 0.250000
vt 0.125000 0.500000
vt 0.375000 0.500000
vt 0.125000 0.750000
vt 0.000000 0.000000
s 0
usemtl Material
f 1/1/1 2/2/1 4/3/1 3/4/1
f 3/4/2 4/3/2 6/5/2 5/6/2
f 5/6/3 6/5/3 8/7/3 7/8/3
f 7/8/4 8/7/4 10/9/4 9/10/4
f 4/11/5 2/12/5 12/13/5 10/14/5 8/15/5 6/16/5
f 9/10/6 10/9/6 12/17/6 11/18/6
f 11/18/7 12/17/7 2/19/7 1/20/7
f 1/21/8 3/22/8 5/23/8 7/24/8 9/25/8 11/26/8
f 13/27/9 17/28/9 19/29/9 15/30/9
f 16/31/10 15/30/10 19/32/10 20/33/10
f 20/34/6 19/35/6 17/36/6 18/37/6
f 18/38/11 14/39/11 16/31/11 20/40/11
f 14/39/2 13/27/2 15/30/2 16/31/2
f 18/37/12 17/36/12 13/27/12 14/39/12
f 19/29/13 15/30/13 21/30/13 22/29/13
f 22/29/14 21/30/14 23/30/14 24/29/14
f 24/29/15 23/30/15 25/30/15 26/29/15
f 13/27/16 17/28/16 28/28/16 27/27/16
f 27/27/17 28/28/17 30/28/17 29/27/17
f 29/27/18 30/28/18 32/28/18 31/27/18
f 31/27/19 32/28/19 34/28/19 33/27/19
f 33/27/20 34/28/20 36/28/20 35/27/20
f 35/27/21 36/28/21 38/28/21 37/27/21
f 37/27/22 38/28/22 40/28/22 39/27/22
f 39/27/23 40/28/23 42/28/23 41/27/23
f 41/27/24 42/28/24 44/28/24 43/27/24
f 43/27/25 44/28/25 46/28/25 45/27/25
f 45/27/26 46/28/26 48/28/26 47/27/26
f 47/27/27 48/28/27 50/28/27 49/27/27
f 49/27/28 50/28/28 52/28/28 51/27/28
f 51/27/29 52/28/29 54/28/29 53/27/29
f 53/27/30 54/28/30 56/28/30 55/27/30
f 55/27/31 56/28/31 58/28/31 57/27/31
f 57/27/32 58/28/32 60/28/32 59/27/32
f 59/27/33 60/28/33 62/28/33 61/27/33
f 61/27/34 62/28/34 64/28/34 63/27/34
f 63/27/5 64/28/5 66/28/5 65/27/5
f 65/27/35 66/28/35 68/28/35 67/27/35
f 67/27/36 68/28/36 70/28/36 69/27/36
f 69/27/37 70/28/37 72/28/37 71/27/37
f 71/27/38 72/28/38 74/28/38 73/27/38
f 73/27/39 74/28/39 76/28/39 75/27/39
f 75/27/40 76/28/40 78/28/40 77/27/40
f 77/27/41 78/28/41 80/28/41 79/27/41
f 79/27/42 80/28/42 82/28/42 81/27/42
f 81/27/43 82/28/43 84/28/43 83/27/43
f 83/27/44 84/28/44 86/28/44 85/27/44
f 85/27/45 86/28/45 88/28/45 87/27/45
f 87/27/46 88/28/46 90/28/46 89/27/46
f 89/27/47 90/28/47 92/28/47 91/27/47
f 91/27/48 92/28/48 94/28/48 93/27/48
f 93/27/49 94/28/49 96/28/49 95/27/49
f 95/27/50 96/28/50 98/28/50 97/27/50
f 97/27/51 98/28/51 100/28/51 99/27/51
f 99/27/52 100/28/52 102/28/52 101/27/52
f 101/27/53 102/28/53 104/28/53 103/27/53
f 103/27/54 104/28/54 106/28/54 105/27/54
f 105/27/55 106/28/55 108/28/55 107/27/55
f 107/27/56 108/28/56 110/28/56 109/27/56
f 109/27/57 110/28/57 112/28/57 111/27/57
f 111/27/8 112/28/8 114/28/8 113/27/8
f 113/27/58 114/28/58 116/28/58 115/27/58
f 115/27/59 116/28/59 118/28/59 117/27/59
f 117/27/60 118/28/60 120/28/60 119/27/60
f 119/27/61 120/28/61 122/28/61 121/27/61
f 25/30/62 121/27/62 122/28/62 26/29/62
f 19/41/6 22/41/6 24/41/6 26/41/6 122/41/6 32/41/6 30/41/6 28/41/6 17/41/6
f 13/41/63 27/41/63 29/41/63 31/41/63 121/41/63 25/41/63 23/41/63 21/41/63 15/41/63
f 33/27/64 35/27/64 37/27/64 113/27/64 115/27/64 117/27/64 119/27/64 121/27/64 31/41/64
f 32/41/65 122/41/65 120/28/65 118/28/65 116/28/65 114/28/65 38/28/65 36/28/65 34/28/65
f 38/28/6 114/28/6 112/28/6 110/28/6 108/28/6 46/28/6 44/28/6 42/28/6 40/28/6
f 94/28/6 108/28/6 106/28/6 104/28/6 102/28/6 100/28/6 98/28/6 96/28/6
f 97/27/2 99/27/2 101/27/2 103/27/2 105/27/2 107/27/2 95/27/2
f 46/28/6 94/28/6 92/28/6 90/28/6 88/28/6 86/28/6 54/28/6 52/28/6 50/28/6 48/28/6
f 108/28/6 94/28/6 46/28/6
f 62/28/6 60/28/6 84/41/6
f 64/41/6 62/28/6 84/41/6
f 64/41/6 84/41/6 82/41/6 66/41/6
f 66/41/6 82/41/6 80/28/6 68/28/6
f 68/28/6 80/28/6 78/28/6 76/28/6 74/28/6 72/28/6 70/28/6
f 39/27/2 41/27/2 43/27/2 45/27/2 47/27/2 49/27/2 51/27/2 53/27/2 85/27/2 87/27/2 89/27/2 91/27/2 93/27/2 95/27/2 107/27/2 109/27/2 111/27/2 113/27/2 37/27/2
f 53/27/2 55/27/2 57/27/2 59/27/2 81/27/2 83/27/2 85/27/2
f 59/27/2 61/27/2 63/27/2 65/27/2 81/27/2
f 67/27/2 69/27/2 71/27/2 73/27/2 75/27/2 77/27/2 79/27/2 81/27/2 65/27/2
f 54/28/6 86/28/6 84/28/6 60/28/6 58/28/6 56/28/6
f 153/37/2 151/37/2 149/37/2 135/33/2 137/33/2 139/33/2
f 125/37/66 126/36/66 130/27/66 129/39/66
f 129/39/2 130/27/2 128/30/2 127/31/2
f 127/31/67 128/30/67 124/32/67 123/33/67
f 125/38/68 129/39/68 127/31/68 123/40/68
f 130/27/69 126/28/69 124/29/69 128/30/69
f 123/33/6 124/29/6 126/36/6 125/37/6 147/37/6 149/37/6 135/33/6 133/33/6 131/33/6
f 123/33/70 127/31/70 132/31/70 131/33/70
f 131/33/71 132/31/71 134/31/71 133/33/71
f 133/33/72 134/31/72 136/31/72 135/33/72
f 135/33/73 136/31/73 138/31/73 137/33/73
f 137/33/74 138/31/74 140/31/74 139/33/74
f 139/33/75 140/31/75 142/31/75 141/33/75
f 141/33/76 142/31/76 144/31/76 143/33/76
f 143/33/77 144/31/77 146/31/77 145/33/77
f 145/33/78 146/31/78 35/31/78 36/33/78
f 129/39/79 125/37/79 147/37/79 148/39/79
f 148/39/80 147/37/80 149/37/80 150/39/80
f 150/39/81 149/37/81 151/37/81 152/39/81
f 152/39/82 151/37/82 153/37/82 154/39/82
f 154/39/83 153/37/83 155/37/83 156/39/83
f 156/39/84 155/37/84 157/37/84 158/39/84
f 158/39/85 157/37/85 159/37/85 160/39/85
f 160/39/86 159/37/86 161/37/86 162/39/86
f 162/39/87 161/37/87 163/37/87 164/39/87
f 164/39/88 163/37/88 34/37/88 33/39/88
f 35/41/89 146/41/89 144/41/89 160/41/89 162/41/89 164/41/89 33/41/89
f 138/31/6 152/39/6 154/39/6 156/39/6 158/39/6 160/39/6 144/41/6 142/31/6 140/31/6
f 132/41/6 127/41/6 129/41/6 148/41/6 150/41/6 152/41/6 138/41/6 136/41/6 134/41/6
f 139/33/2 141/33/2 143/33/2 145/33/2 163/37/2 161/37/2 159/37/2 157/37/2 155/37/2 153/37/2
f 34/41/90 163/41/90 145/41/90 36/41/90
