# Blender v2.91.0 OBJ File: 'Rocks.blend'
# www.blender.org
mtllib Rock2.mtl
o Cube.004_Cube.005
v -1.998850 -0.092952 -1.075195
v -1.773837 -1.324594 -1.225188
v -2.026634 -0.108048 1.218533
v -1.867446 -1.278339 1.269905
v -3.721371 -0.092952 -1.075195
v -3.947844 -1.325641 -1.229244
v -3.693587 -0.108048 1.218533
v -3.852775 -1.278339 1.269905
v -3.561113 -1.487864 -0.701003
v -3.561113 -1.487864 0.701002
v -2.159108 -1.487864 -0.701003
v -2.159108 -1.487864 0.701003
v -2.249495 -1.366971 -2.207110
v -3.468800 -1.367983 -2.211034
v -2.338328 -0.756655 -2.185402
v -3.381893 -0.756655 -2.185402
v -2.273386 -1.501174 -1.633472
v -3.454863 -1.506547 -1.654293
v -2.375452 -1.521320 -2.066355
v -3.336743 -1.525925 -2.084196
v -2.626972 -1.350509 -2.608624
v -3.093249 -1.350509 -2.608624
v -2.626972 -1.123477 -2.608625
v -3.093249 -1.123477 -2.608625
v -3.257532 -1.268874 2.679390
v -3.257532 -0.748339 2.679390
v -2.462689 -0.748339 2.679390
v -2.462689 -1.268874 2.679390
v -4.184857 -1.197987 0.004915
v -2.861811 -1.457370 -1.369359
v -1.634319 -0.656954 -1.090458
v -4.033312 -0.662544 1.224038
v -1.686909 -0.662544 1.224038
v -4.086014 -0.657090 -1.090983
v -2.860111 0.096640 1.218533
v -1.947266 0.019554 0.017917
v -2.860111 -1.437502 1.599515
v -3.772955 0.019554 0.017917
v -2.860111 0.113371 -1.075196
v -1.535476 -1.197904 0.005239
v -3.714728 -1.489119 0.000000
v -2.860111 -1.489119 -0.854617
v -2.860111 -1.489119 0.854617
v -2.005493 -1.489119 0.000000
v -3.762703 -1.460550 0.929717
v -1.957519 -1.460550 0.929717
v -3.772407 -1.465142 -0.921990
v -1.948009 -1.465058 -0.921666
v -2.858361 -1.453584 -2.309896
v -2.127190 -1.041956 -2.187632
v -3.592871 -1.042087 -2.188141
v -2.860111 -0.651570 -2.185402
v -1.836243 -1.278539 -1.803515
v -2.151399 -0.404702 -1.775261
v -3.568823 -0.404702 -1.775261
v -3.883929 -1.280676 -1.811797
v -2.865416 -1.503973 -1.598741
v -2.854806 -1.530788 -2.125676
v -2.207044 -1.514083 -1.849433
v -3.513178 -1.520677 -1.874984
v -2.053253 -1.471588 -1.540012
v -2.271402 -1.489648 -2.123006
v -3.441765 -1.493443 -2.137707
v -3.673974 -1.476526 -1.559144
v -2.860111 -1.378796 -2.635174
v -2.589996 -1.247277 -2.635174
v -3.130225 -1.247277 -2.635174
v -2.860111 -1.115757 -2.635174
v -2.500286 -0.998240 -2.464668
v -3.219935 -0.998240 -2.464668
v -2.492215 -1.360373 -2.469977
v -3.227762 -1.360452 -2.470284
v -3.313467 -1.041921 2.772697
v -2.406754 -1.041921 2.772697
v -2.860111 -0.745022 2.772697
v -2.860111 -1.338820 2.772697
v -3.501989 -1.267615 2.192020
v -3.484553 -0.441072 2.176780
v -2.218233 -1.267615 2.192020
v -2.235668 -0.441072 2.176780
v -2.860111 0.243085 0.017917
v -3.716954 -0.855443 2.187355
v -4.164699 -0.582394 0.015413
v -2.860111 -1.474675 1.269317
v -1.555550 -0.582373 0.015494
v -1.847767 -0.833699 -1.779864
v -2.860111 -1.491751 -0.000000
v -4.097582 -1.450143 0.000482
v -1.622667 -1.450123 0.000563
v -2.860306 -1.477132 -1.245078
v -2.860111 -0.933643 -2.467285
v -3.872443 -0.833947 -1.780828
v -1.912241 -1.471324 -1.831371
v -2.860111 -0.245859 -1.775261
v -2.860111 -1.525016 -1.867727
v -2.855128 -1.503258 -2.234468
v -3.807968 -1.477508 -1.855335
v -2.865081 -1.481240 -1.458969
v -2.860111 -1.268858 -2.690891
v -2.366047 -1.178942 -2.467826
v -3.354134 -1.178962 -2.467903
v -2.859903 -1.425548 -2.481026
v -2.860111 -1.111833 2.968511
v -2.860111 -1.416190 2.227675
v -2.860111 -0.295015 2.185979
v -2.003268 -0.855443 2.187355
vt 0.625000 0.541667
vt 0.750000 0.541667
vt 0.750000 0.625000
vt 0.625000 0.625000
vt 0.875000 0.541667
vt 0.875000 0.625000
vt 0.875000 0.708333
vt 0.750000 0.708333
vt 0.625000 0.708333
vt 0.625000 0.041667
vt 0.500868 0.038194
vt 0.500000 0.004340
vt 0.625000 0.005208
vt 0.375000 0.000000
vt 0.375000 0.000000
vt 0.375000 0.000000
vt 0.500000 0.000000
vt 0.625000 0.000000
vt 0.503858 0.125000
vt 0.411265 0.125000
vt 0.625000 0.125000
vt 0.625000 0.208333
vt 0.503279 0.211806
vt 0.397727 0.250000
vt 0.405000 0.750000
vt 0.378090 0.875868
vt 0.374688 0.875868
vt 0.373750 0.753472
vt 0.375000 1.000000
vt 0.375000 1.000000
vt 0.375000 1.000000
vt 0.369792 0.880208
vt 0.333333 0.791667
vt 0.397727 0.500000
vt 0.503279 0.538194
vt 0.504414 0.625000
vt 0.413488 0.625000
vt 0.503958 0.712674
vt 0.504414 0.503785
vt 0.625000 0.505208
vt 0.413488 0.496910
vt 0.405000 0.470000
vt 0.503958 0.496910
vt 0.625000 0.500000
vt 0.125000 0.500000
vt 0.244792 0.494792
vt 0.244792 0.625000
vt 0.125000 0.625000
vt 0.333333 0.458333
vt 0.333333 0.625000
vt 0.244792 0.755208
vt 0.125000 0.750000
vt 0.378858 0.125000
vt 0.375000 0.000000
vt 0.377411 0.250000
vt 0.375000 0.250000
vt 0.375000 0.125000
vt 0.375000 0.000000
vt 0.374205 0.625000
vt 0.373071 0.496528
vt 0.378086 0.375000
vt 0.374904 0.374132
vt 0.369792 0.369792
vt 0.875000 0.500000
vt 0.750000 0.500000
vt 0.750868 0.499132
vt 0.875000 0.500000
vt 0.628472 0.495660
vt 0.666667 0.458333
vt 0.755208 0.494792
vt 0.875000 0.500000
vt 0.504414 0.246215
vt 0.413488 0.253090
vt 0.625000 0.244792
vt 0.625000 0.250000
vt 0.503958 0.253090
vt 0.405000 0.280000
vt 0.379414 0.485941
vt 0.378090 0.456015
vt 0.377411 0.458237
vt 0.375000 0.437500
vt 0.375000 0.451196
vt 0.375000 0.437500
vt 0.750000 0.505208
vt 0.875000 0.505208
vt 0.375000 0.375000
vt 0.375000 0.375000
vt 0.375000 0.312500
vt 0.375000 0.298804
vt 0.375000 0.312500
vt 0.375000 0.375000
vt 0.381181 0.375000
vt 0.376111 0.375000
vt 0.378090 0.293985
vt 0.379414 0.264059
vt 0.377411 0.291763
vt 0.375772 0.375000
vt 0.437500 0.312500
vt 0.507909 0.295235
vt 0.507427 0.375000
vt 0.423804 0.375000
vt 0.625000 0.291667
vt 0.630208 0.375000
vt 0.511381 0.454765
vt 0.437500 0.437500
vt 0.506439 0.490089
vt 0.418985 0.456015
vt 0.505571 0.259911
vt 0.418985 0.293985
vt 0.625000 0.255208
vt 0.389614 0.375000
vt 0.437500 0.812500
vt 0.511381 0.795235
vt 0.506752 0.880884
vt 0.420235 0.882909
vt 0.666667 0.791667
vt 0.630208 0.880208
vt 0.625000 1.000000
vt 0.505208 1.000000
vt 0.416667 1.000000
vt 0.384911 0.880016
vt 0.380208 1.000000
vt 0.418985 0.790895
vt 0.750868 0.745660
vt 0.628472 0.749132
vt 0.875000 0.744792
vt 0.875000 0.750000
vt 0.755208 0.755208
vt 0.506439 0.755015
vn 0.2340 0.9657 -0.1125
vn -0.2340 0.9657 -0.1125
vn -0.2365 0.9645 0.1179
vn 0.2365 0.9645 0.1179
vn -0.8037 0.4804 0.3512
vn -0.8989 -0.3318 0.2860
vn -0.8129 -0.4029 0.4205
vn -0.7163 0.3778 0.5866
vn -0.9769 -0.1222 0.1751
vn -0.8390 0.5310 0.1192
vn -0.8344 0.5428 -0.0956
vn -0.9890 -0.0762 -0.1268
vn 0.1859 -0.9409 0.2829
vn -0.1859 -0.9409 0.2829
vn -0.0269 -0.9980 0.0563
vn 0.0269 -0.9980 0.0563
vn 0.9888 -0.0776 -0.1275
vn 0.8345 0.5427 -0.0956
vn 0.8390 0.5310 0.1192
vn 0.9769 -0.1222 0.1751
vn 0.7625 0.5208 -0.3839
vn 0.9755 -0.0832 -0.2037
vn 0.7719 -0.0757 -0.6313
vn 0.6108 0.4464 -0.6540
vn -0.0028 -1.0000 -0.0028
vn 0.0028 -1.0000 -0.0028
vn 0.0028 -1.0000 0.0028
vn -0.0028 -1.0000 0.0028
vn -0.8240 -0.5182 0.2290
vn -0.7601 -0.6308 -0.1564
vn -0.0960 -0.9952 -0.0199
vn -0.1029 -0.9944 0.0252
vn 0.7622 -0.6277 -0.1583
vn 0.8241 -0.5181 0.2290
vn 0.1029 -0.9944 0.0252
vn 0.0961 -0.9952 -0.0200
vn -0.1361 -0.9462 -0.2934
vn 0.1381 -0.9445 -0.2980
vn 0.0227 -0.9985 -0.0490
vn -0.0226 -0.9985 -0.0489
vn -0.1376 0.7040 -0.6967
vn 0.1376 0.7040 -0.6967
vn 0.1187 0.6826 -0.7210
vn -0.1187 0.6826 -0.7210
vn -0.9756 -0.0798 -0.2045
vn -0.7623 0.5211 -0.3840
vn -0.6101 0.4469 -0.6543
vn -0.7681 -0.0675 -0.6368
vn 0.6571 -0.3252 -0.6801
vn 0.6795 -0.7333 0.0224
vn 0.1228 -0.9896 0.0749
vn 0.1700 -0.9772 -0.1273
vn -0.2033 0.8741 -0.4411
vn 0.2033 0.8741 -0.4411
vn 0.1520 0.7086 -0.6891
vn -0.1520 0.7086 -0.6891
vn 0.0119 -0.9974 0.0716
vn -0.0051 -0.9974 0.0722
vn -0.0075 -0.9998 0.0207
vn 0.0165 -0.9996 0.0217
vn -0.1724 -0.6548 -0.7359
vn 0.1848 -0.6783 -0.7112
vn 0.0685 -0.9522 -0.2978
vn -0.0538 -0.9474 -0.3154
vn -0.6944 -0.7194 0.0194
vn -0.6525 -0.2738 -0.7065
vn -0.1718 -0.9740 -0.1477
vn -0.1241 -0.9894 0.0751
vn 0.0582 -0.9335 0.3537
vn -0.0599 -0.9346 0.3507
vn -0.0236 -0.9799 0.1981
vn 0.0249 -0.9802 0.1964
vn -0.1858 -0.3817 -0.9054
vn -0.1459 0.2996 -0.9428
vn 0.1459 0.2996 -0.9428
vn 0.1858 -0.3817 -0.9054
vn 0.5700 0.4306 -0.6998
vn 0.7427 -0.3397 -0.5770
vn 0.6284 -0.4164 -0.6570
vn 0.5012 0.3586 -0.7875
vn -0.7419 -0.3373 -0.5794
vn -0.5696 0.4308 -0.6999
vn -0.5011 0.3587 -0.7876
vn -0.6282 -0.4162 -0.6573
vn 0.1710 -0.9699 -0.1736
vn -0.1690 -0.9701 -0.1742
vn -0.1640 -0.9516 -0.2598
vn 0.1643 -0.9516 -0.2597
vn 0.3494 -0.5336 0.7702
vn 0.2655 0.4054 0.8747
vn -0.2655 0.4054 0.8747
vn -0.3494 -0.5336 0.7702
vn -0.1987 -0.9779 0.0652
vn 0.1987 -0.9779 0.0652
vn 0.2188 -0.9680 0.1232
vn -0.2188 -0.9680 0.1232
vn 0.2200 0.9049 0.3644
vn -0.2200 0.9049 0.3644
vn -0.1745 0.7911 0.5863
vn 0.1745 0.7911 0.5863
vn 0.8989 -0.3318 0.2860
vn 0.8037 0.4804 0.3512
vn 0.7163 0.3778 0.5866
vn 0.8129 -0.4029 0.4205
usemtl Material.001
s off
f 1/1/1 39/2/1 81/3/1 36/4/1
f 39/2/2 5/5/2 38/6/2 81/3/2
f 81/3/3 38/6/3 7/7/3 35/8/3
f 36/4/4 81/3/4 35/8/4 3/9/4
f 7/10/5 32/11/5 82/12/5 78/13/5
f 32/11/6 8/14/6 77/15/6 82/12/6
f 82/12/7 77/15/7 25/16/7 73/17/7
f 78/13/8 82/12/8 73/17/8 26/18/8
f 8/14/9 32/11/9 83/19/9 29/20/9
f 32/11/10 7/10/10 38/21/10 83/19/10
f 83/19/11 38/21/11 5/22/11 34/23/11
f 29/20/12 83/19/12 34/23/12 6/24/12
f 4/25/13 37/26/13 84/27/13 46/28/13
f 37/26/14 8/29/14 45/30/14 84/27/14
f 84/27/15 45/30/15 10/31/15 43/32/15
f 46/28/16 84/27/16 43/32/16 12/33/16
f 2/34/17 31/35/17 85/36/17 40/37/17
f 31/35/18 1/1/18 36/4/18 85/36/18
f 85/36/19 36/4/19 3/9/19 33/38/19
f 40/37/20 85/36/20 33/38/20 4/25/20
f 1/1/21 31/35/21 86/39/21 54/40/21
f 31/35/22 2/34/22 53/41/22 86/39/22
f 86/39/23 53/41/23 13/42/23 50/43/23
f 54/40/24 86/39/24 50/43/24 15/44/24
f 9/45/25 42/46/25 87/47/25 41/48/25
f 42/46/26 11/49/26 44/50/26 87/47/26
f 87/47/27 44/50/27 12/33/27 43/51/27
f 41/48/28 87/47/28 43/51/28 10/52/28
f 8/14/29 29/20/29 88/53/29 45/54/29
f 29/20/30 6/24/30 47/55/30 88/53/30
f 88/53/31 47/55/31 9/56/31 41/57/31
f 45/54/32 88/53/32 41/57/32 10/58/32
f 2/34/33 40/37/33 89/59/33 48/60/33
f 40/37/34 4/25/34 46/28/34 89/59/34
f 89/59/35 46/28/35 12/33/35 44/50/35
f 48/60/36 89/59/36 44/50/36 11/49/36
f 6/24/37 30/61/37 90/62/37 47/55/37
f 30/61/38 2/34/38 48/60/38 90/62/38
f 90/62/39 48/60/39 11/49/39 42/63/39
f 47/55/40 90/62/40 42/63/40 9/56/40
f 16/64/41 52/65/41 91/66/41 70/67/41
f 52/65/42 15/44/42 69/68/42 91/66/42
f 91/66/43 69/68/43 23/69/43 68/70/43
f 70/67/44 91/66/44 68/70/44 24/71/44
f 6/24/45 34/23/45 92/72/45 56/73/45
f 34/23/46 5/22/46 55/74/46 92/72/46
f 92/72/47 55/74/47 16/75/47 51/76/47
f 56/73/48 92/72/48 51/76/48 14/77/48
f 13/42/49 53/41/49 93/78/49 62/79/49
f 53/41/50 2/34/50 61/80/50 93/78/50
f 93/78/51 61/80/51 17/81/51 59/82/51
f 62/79/52 93/78/52 59/82/52 19/83/52
f 5/5/53 39/2/53 94/84/53 55/85/53
f 39/2/54 1/1/54 54/40/54 94/84/54
f 94/84/55 54/40/55 15/44/55 52/65/55
f 55/85/56 94/84/56 52/65/56 16/64/56
f 17/81/57 57/86/57 95/87/57 59/82/57
f 57/86/58 18/88/58 60/89/58 95/87/58
f 95/87/59 60/89/59 20/90/59 58/91/59
f 59/82/60 95/87/60 58/91/60 19/83/60
f 14/77/61 49/92/61 96/93/61 63/94/61
f 49/92/62 13/42/62 62/79/62 96/93/62
f 96/93/63 62/79/63 19/83/63 58/91/63
f 63/94/64 96/93/64 58/91/64 20/90/64
f 6/24/65 56/73/65 97/95/65 64/96/65
f 56/73/66 14/77/66 63/94/66 97/95/66
f 97/95/67 63/94/67 20/90/67 60/89/67
f 64/96/68 97/95/68 60/89/68 18/88/68
f 2/34/69 30/61/69 98/97/69 61/80/69
f 30/61/70 6/24/70 64/96/70 98/97/70
f 98/97/71 64/96/71 18/88/71 57/86/71
f 61/80/72 98/97/72 57/86/72 17/81/72
f 22/98/73 67/99/73 99/100/73 65/101/73
f 67/99/74 24/102/74 68/103/74 99/100/74
f 99/100/75 68/103/75 23/69/75 66/104/75
f 65/101/76 99/100/76 66/104/76 21/105/76
f 15/44/77 50/43/77 100/106/77 69/68/77
f 50/43/78 13/42/78 71/107/78 100/106/78
f 100/106/79 71/107/79 21/105/79 66/104/79
f 69/68/80 100/106/80 66/104/80 23/69/80
f 14/77/81 51/76/81 101/108/81 72/109/81
f 51/76/82 16/75/82 70/110/82 101/108/82
f 101/108/83 70/110/83 24/102/83 67/99/83
f 72/109/84 101/108/84 67/99/84 22/98/84
f 13/42/85 49/92/85 102/111/85 71/107/85
f 49/92/86 14/77/86 72/109/86 102/111/86
f 102/111/87 72/109/87 22/98/87 65/101/87
f 71/107/88 102/111/88 65/101/88 21/105/88
f 28/112/89 74/113/89 103/114/89 76/115/89
f 74/113/90 27/116/90 75/117/90 103/114/90
f 103/114/91 75/117/91 26/118/91 73/119/91
f 76/115/92 103/114/92 73/119/92 25/120/92
f 8/29/93 37/26/93 104/121/93 77/122/93
f 37/26/94 4/25/94 79/123/94 104/121/94
f 104/121/95 79/123/95 28/112/95 76/115/95
f 77/122/96 104/121/96 76/115/96 25/120/96
f 3/9/97 35/8/97 105/124/97 80/125/97
f 35/8/98 7/7/98 78/126/98 105/124/98
f 105/124/99 78/126/99 26/127/99 75/128/99
f 80/125/100 105/124/100 75/128/100 27/116/100
f 4/25/101 33/38/101 106/129/101 79/123/101
f 33/38/102 3/9/102 80/125/102 106/129/102
f 106/129/103 80/125/103 27/116/103 74/113/103
f 79/123/104 106/129/104 74/113/104 28/112/104
