# Blender v2.91.0 OBJ File: 'Rocks.blend'
# www.blender.org
mtllib Rock1.mtl
o Cube
v 0.614306 -0.066299 -0.766898
v 0.774800 -0.944786 -0.873883
v 0.500000 -0.066657 0.500000
v 0.666667 -0.833418 0.666667
v -0.614306 -0.066299 -0.766898
v -0.775841 -0.945532 -0.876776
v -0.500000 -0.066657 0.500000
v -0.666667 -0.833418 0.666667
v -0.500000 -1.061241 -0.500000
v -0.500000 -1.061241 0.500000
v 0.500000 -1.061241 -0.500000
v 0.500000 -1.061241 0.500000
v 0.431972 -0.943599 -1.506088
v -0.430063 -0.944603 -1.509975
v 0.342919 -0.489974 -1.451043
v -0.342919 -0.489974 -1.451043
v 0.418490 -1.070734 -1.165097
v -0.424215 -1.074566 -1.179948
v 0.345690 -1.085103 -1.473857
v -0.339965 -1.088387 -1.486583
v -0.934536 -0.845489 -0.021511
v -0.001213 -1.039490 -0.976715
v 0.874313 -0.468582 -0.777785
v -0.638117 -0.408592 0.638117
v 0.638117 -0.408592 0.638117
v -0.874393 -0.468679 -0.778159
v -0.000000 0.005097 0.609568
v 0.631572 0.010195 -0.034134
v 0.000000 -0.833418 0.916667
v -0.631572 0.010195 -0.034134
v 0.000000 0.080863 -0.766898
v 0.934457 -0.845429 -0.021280
v -0.609568 -1.062135 0.000000
v 0.000000 -1.062135 -0.609568
v 0.000000 -1.062135 0.609568
v 0.609568 -1.062135 0.000000
v -0.638117 -1.029694 0.638117
v 0.638117 -1.029694 0.638117
v -0.650708 -1.045033 -0.657622
v 0.650569 -1.044974 -0.657391
v 0.001312 -0.960637 -1.583643
v 0.416611 -0.714001 -1.493190
v -0.416373 -0.714127 -1.493676
v -0.000000 -0.482090 -1.483989
v 0.726700 -0.908540 -1.279252
v 0.498308 -0.283821 -1.252532
v -0.498308 -0.283821 -1.252532
v -0.726600 -0.910097 -1.285283
v -0.003784 -1.072730 -1.140325
v 0.003784 -1.091856 -1.516169
v 0.465809 -1.079941 -1.319135
v -0.465809 -1.084645 -1.337359
v 0.575503 -1.049631 -1.098435
v 0.418967 -1.057827 -1.507133
v -0.413871 -1.060565 -1.517743
v -0.580500 -1.053153 -1.112082
v -0.000000 0.165279 -0.023331
v -0.000000 -0.401517 0.878087
v -0.906634 -0.408428 -0.020698
v -0.000000 -1.029783 0.878086
v 0.906614 -0.408414 -0.020640
v 0.710099 -0.590756 -1.260406
v 0.000000 -1.064013 -0.000000
v -0.881227 -1.032464 -0.004856
v 0.881207 -1.032449 -0.004798
v -0.000139 -1.053585 -0.888070
v 0.000164 -0.755429 -1.565645
v -0.710074 -0.590941 -1.261124
v 0.675847 -1.048710 -1.304769
v -0.000000 -0.176065 -1.255780
v -0.000000 -1.087740 -1.332183
v 0.003570 -1.063742 -1.586030
v -0.675822 -1.053129 -1.321892
v -0.003545 -1.056515 -1.040630
vt 0.625000 0.541667
vt 0.750000 0.541667
vt 0.750868 0.631076
vt 0.628472 0.633681
vt 0.875000 0.541667
vt 0.875000 0.630208
vt 0.875000 0.750000
vt 0.755208 0.755208
vt 0.666667 0.791667
vt 0.416667 0.750000
vt 0.508681 0.753472
vt 0.506076 0.875868
vt 0.416667 0.875000
vt 0.630208 0.880208
vt 0.625000 1.000000
vt 0.505208 1.000000
vt 0.416667 1.000000
vt 0.416667 0.000000
vt 0.505208 0.000000
vt 0.504726 0.120660
vt 0.414738 0.124132
vt 0.625000 0.000000
vt 0.625000 0.119792
vt 0.625000 0.208333
vt 0.503279 0.211806
vt 0.397727 0.250000
vt 0.379340 0.875868
vt 0.375868 0.753472
vt 0.380208 1.000000
vt 0.375000 1.000000
vt 0.369792 0.880208
vt 0.333333 0.791667
vt 0.397727 0.500000
vt 0.503279 0.538194
vt 0.505594 0.630208
vt 0.414738 0.625868
vt 0.505594 0.499132
vt 0.628472 0.500868
vt 0.414738 0.494792
vt 0.416667 0.458333
vt 0.508681 0.458333
vt 0.666667 0.458333
vt 0.125000 0.500000
vt 0.244792 0.494792
vt 0.244792 0.625000
vt 0.125000 0.625000
vt 0.333333 0.458333
vt 0.333333 0.625000
vt 0.244792 0.755208
vt 0.125000 0.750000
vt 0.379726 0.125000
vt 0.380208 0.000000
vt 0.377411 0.250000
vt 0.375000 0.250000
vt 0.375000 0.125000
vt 0.375000 0.000000
vt 0.374518 0.625000
vt 0.373071 0.496528
vt 0.378086 0.375000
vt 0.374904 0.374132
vt 0.369792 0.369792
vt 0.416667 0.291667
vt 0.505208 0.291667
vt 0.506076 0.375000
vt 0.416667 0.375000
vt 0.625000 0.291667
vt 0.630208 0.375000
vt 0.504726 0.250868
vt 0.414738 0.255208
vt 0.625000 0.250000
vt 0.379726 0.485629
vt 0.380208 0.454765
vt 0.377411 0.458237
vt 0.375000 0.437500
vt 0.375000 0.451196
vt 0.375000 0.437500
vt 0.750868 0.504340
vt 0.875000 0.505208
vt 0.755208 0.494792
vt 0.875000 0.500000
vt 0.375000 0.375000
vt 0.375000 0.375000
vt 0.375000 0.312500
vt 0.375000 0.298804
vt 0.375000 0.312500
vt 0.375000 0.375000
vt 0.380208 0.375000
vt 0.380208 0.295235
vt 0.379726 0.264371
vt 0.377411 0.291763
vt 0.375772 0.375000
vn 0.2335 0.9663 -0.1081
vn -0.2335 0.9663 -0.1081
vn -0.2140 0.9523 0.2175
vn 0.2140 0.9523 0.2175
vn 0.3507 0.0848 0.9326
vn 0.2860 0.4976 0.8189
vn -0.2860 0.4976 0.8189
vn -0.3507 0.0848 0.9326
vn -0.9268 0.0726 0.3684
vn -0.8104 0.5008 0.3041
vn -0.8353 0.5443 -0.0777
vn -0.9917 -0.0646 -0.1110
vn 0.3457 -0.1825 0.9204
vn -0.3457 -0.1825 0.9204
vn -0.0440 -0.9891 0.1405
vn 0.0440 -0.9891 0.1405
vn 0.9915 -0.0660 -0.1117
vn 0.8353 0.5442 -0.0777
vn 0.8104 0.5008 0.3041
vn 0.9268 0.0726 0.3684
vn 0.7582 0.5149 -0.4001
vn 0.9718 -0.0688 -0.2257
vn 0.6000 0.0812 -0.7959
vn 0.5054 0.3462 -0.7904
vn -0.0028 -1.0000 -0.0028
vn 0.0028 -1.0000 -0.0028
vn 0.0028 -1.0000 0.0028
vn -0.0028 -1.0000 0.0028
vn -0.9128 -0.2059 0.3527
vn -0.7764 -0.6110 -0.1548
vn -0.1005 -0.9947 -0.0196
vn -0.1335 -0.9901 0.0444
vn 0.7783 -0.6080 -0.1566
vn 0.9128 -0.2059 0.3527
vn 0.1335 -0.9901 0.0444
vn 0.1007 -0.9947 -0.0197
vn -0.1361 -0.9462 -0.2934
vn 0.1381 -0.9445 -0.2980
vn 0.0227 -0.9985 -0.0490
vn -0.0226 -0.9985 -0.0489
vn -0.1633 0.0821 -0.9832
vn -0.1211 0.2574 -0.9587
vn 0.1217 0.2567 -0.9588
vn 0.1688 0.0762 -0.9827
vn -0.9718 -0.0652 -0.2265
vn -0.7579 0.5152 -0.4001
vn -0.5044 0.3470 -0.7907
vn -0.5945 0.0915 -0.7989
vn 0.6161 -0.0728 -0.7843
vn 0.6918 -0.7219 0.0152
vn 0.1248 -0.9894 0.0739
vn 0.1893 -0.9686 -0.1611
vn -0.2009 0.8711 -0.4480
vn 0.2009 0.8711 -0.4480
vn 0.1180 0.6143 -0.7802
vn -0.1180 0.6143 -0.7802
vn 0.0119 -0.9974 0.0716
vn -0.0051 -0.9974 0.0722
vn -0.0075 -0.9998 0.0207
vn 0.0165 -0.9996 0.0217
vn -0.1642 0.0319 -0.9859
vn 0.1817 0.0065 -0.9833
vn 0.0831 -0.9013 -0.4252
vn -0.0652 -0.8925 -0.4463
vn -0.7069 -0.7072 0.0121
vn -0.6023 -0.0190 -0.7980
vn -0.1913 -0.9642 -0.1838
vn -0.1261 -0.9892 0.0741
vn 0.0582 -0.9335 0.3537
vn -0.0599 -0.9346 0.3507
vn -0.0236 -0.9799 0.1981
vn 0.0249 -0.9802 0.1964
usemtl Material
s off
f 1/1/1 31/2/1 57/3/1 28/4/1
f 31/2/2 5/5/2 30/6/2 57/3/2
f 57/3/3 30/6/3 7/7/3 27/8/3
f 28/4/4 57/3/4 27/8/4 3/9/4
f 4/10/5 25/11/5 58/12/5 29/13/5
f 25/11/6 3/9/6 27/14/6 58/12/6
f 58/12/7 27/14/7 7/15/7 24/16/7
f 29/13/8 58/12/8 24/16/8 8/17/8
f 8/18/9 24/19/9 59/20/9 21/21/9
f 24/19/10 7/22/10 30/23/10 59/20/10
f 59/20/11 30/23/11 5/24/11 26/25/11
f 21/21/12 59/20/12 26/25/12 6/26/12
f 4/10/13 29/13/13 60/27/13 38/28/13
f 29/13/14 8/17/14 37/29/14 60/27/14
f 60/27/15 37/29/15 10/30/15 35/31/15
f 38/28/16 60/27/16 35/31/16 12/32/16
f 2/33/17 23/34/17 61/35/17 32/36/17
f 23/34/18 1/1/18 28/4/18 61/35/18
f 61/35/19 28/4/19 3/9/19 25/11/19
f 32/36/20 61/35/20 25/11/20 4/10/20
f 1/1/21 23/34/21 62/37/21 46/38/21
f 23/34/22 2/33/22 45/39/22 62/37/22
f 62/37/23 45/39/23 13/40/23 42/41/23
f 46/38/24 62/37/24 42/41/24 15/42/24
f 9/43/25 34/44/25 63/45/25 33/46/25
f 34/44/26 11/47/26 36/48/26 63/45/26
f 63/45/27 36/48/27 12/32/27 35/49/27
f 33/46/28 63/45/28 35/49/28 10/50/28
f 8/18/29 21/21/29 64/51/29 37/52/29
f 21/21/30 6/26/30 39/53/30 64/51/30
f 64/51/31 39/53/31 9/54/31 33/55/31
f 37/52/32 64/51/32 33/55/32 10/56/32
f 2/33/33 32/36/33 65/57/33 40/58/33
f 32/36/34 4/10/34 38/28/34 65/57/34
f 65/57/35 38/28/35 12/32/35 36/48/35
f 40/58/36 65/57/36 36/48/36 11/47/36
f 6/26/37 22/59/37 66/60/37 39/53/37
f 22/59/38 2/33/38 40/58/38 66/60/38
f 66/60/39 40/58/39 11/47/39 34/61/39
f 39/53/40 66/60/40 34/61/40 9/54/40
f 14/62/41 43/63/41 67/64/41 41/65/41
f 43/63/42 16/66/42 44/67/42 67/64/42
f 67/64/43 44/67/43 15/42/43 42/41/43
f 41/65/44 67/64/44 42/41/44 13/40/44
f 6/26/45 26/25/45 68/68/45 48/69/45
f 26/25/46 5/24/46 47/70/46 68/68/46
f 68/68/47 47/70/47 16/66/47 43/63/47
f 48/69/48 68/68/48 43/63/48 14/62/48
f 13/40/49 45/39/49 69/71/49 54/72/49
f 45/39/50 2/33/50 53/73/50 69/71/50
f 69/71/51 53/73/51 17/74/51 51/75/51
f 54/72/52 69/71/52 51/75/52 19/76/52
f 5/5/53 31/2/53 70/77/53 47/78/53
f 31/2/54 1/1/54 46/38/54 70/77/54
f 70/77/55 46/38/55 15/42/55 44/79/55
f 47/78/56 70/77/56 44/79/56 16/80/56
f 17/74/57 49/81/57 71/82/57 51/75/57
f 49/81/58 18/83/58 52/84/58 71/82/58
f 71/82/59 52/84/59 20/85/59 50/86/59
f 51/75/60 71/82/60 50/86/60 19/76/60
f 14/62/61 41/65/61 72/87/61 55/88/61
f 41/65/62 13/40/62 54/72/62 72/87/62
f 72/87/63 54/72/63 19/76/63 50/86/63
f 55/88/64 72/87/64 50/86/64 20/85/64
f 6/26/65 48/69/65 73/89/65 56/90/65
f 48/69/66 14/62/66 55/88/66 73/89/66
f 73/89/67 55/88/67 20/85/67 52/84/67
f 56/90/68 73/89/68 52/84/68 18/83/68
f 2/33/69 22/59/69 74/91/69 53/73/69
f 22/59/70 6/26/70 56/90/70 74/91/70
f 74/91/71 56/90/71 18/83/71 49/81/71
f 53/73/72 74/91/72 49/81/72 17/74/72
