# Blender v2.91.0 OBJ File: 'Rocks.blend'
# www.blender.org
mtllib Rock3.mtl
o Cube.001
v -6.759294 -0.666667 0.666667
v -6.592627 0.500000 0.500000
v -6.759294 -0.666667 -0.666667
v -6.592627 0.500000 -0.500000
v -5.425961 -0.666667 0.666667
v -5.592627 0.500000 0.500000
v -5.425961 -0.666667 -0.666667
v -5.592627 0.500000 -0.500000
v -6.592627 -1.000000 -0.500000
v -6.592627 -1.000000 0.500000
v -5.592627 -1.000000 -0.500000
v -5.592627 -1.000000 0.500000
v -7.009294 -0.666667 0.000000
v -6.730744 -0.021605 0.638117
v -6.702195 0.609568 0.000000
v -6.730744 -0.021605 -0.638117
v -6.092627 -0.666667 -0.916667
v -6.092627 0.609568 -0.609568
v -5.454510 -0.021605 -0.638117
v -5.175961 -0.666667 0.000000
v -5.483059 0.609568 0.000000
v -5.454510 -0.021605 0.638117
v -6.092627 -0.666667 0.916667
v -6.092627 0.609568 0.609568
v -6.702195 -1.000000 0.000000
v -6.092627 -1.000000 -0.609568
v -5.483059 -1.000000 -0.000000
v -6.092627 -1.000000 0.609568
v -5.454510 -0.958333 0.638117
v -5.454510 -0.958333 -0.638117
v -6.730744 -0.958333 0.638117
v -6.730744 -0.958333 -0.638117
v -6.970714 -0.010802 -0.000000
v -6.092627 -0.010802 -0.878087
v -5.214540 -0.010802 -0.000000
v -6.092627 -0.010802 0.878087
v -5.214540 -0.958333 -0.000000
v -6.092627 0.839506 0.000000
v -6.092627 -1.000000 -0.000000
v -6.092627 -0.958333 0.878086
v -6.092627 -0.958333 -0.878086
v -6.970714 -0.958333 -0.000000
vt 0.416667 0.000000
vt 0.505208 0.000000
vt 0.505208 0.125000
vt 0.416667 0.125000
vt 0.625000 0.000000
vt 0.625000 0.125000
vt 0.625000 0.250000
vt 0.505208 0.250000
vt 0.416667 0.250000
vt 0.506076 0.374132
vt 0.416667 0.375000
vt 0.630208 0.369792
vt 0.666667 0.458333
vt 0.508681 0.496528
vt 0.416667 0.500000
vt 0.506944 0.625000
vt 0.416667 0.625000
vt 0.631945 0.625000
vt 0.666667 0.791667
vt 0.508681 0.753472
vt 0.416667 0.750000
vt 0.506076 0.875868
vt 0.416667 0.875000
vt 0.630208 0.880208
vt 0.625000 1.000000
vt 0.505208 1.000000
vt 0.416667 1.000000
vt 0.375000 0.625000
vt 0.375868 0.496528
vt 0.375868 0.753472
vt 0.333333 0.791667
vt 0.333333 0.625000
vt 0.333333 0.458333
vt 0.755208 0.494792
vt 0.751736 0.625000
vt 0.875000 0.500000
vt 0.875000 0.625000
vt 0.875000 0.750000
vt 0.755208 0.755208
vt 0.125000 0.500000
vt 0.244792 0.494792
vt 0.244792 0.625000
vt 0.125000 0.625000
vt 0.244792 0.755208
vt 0.125000 0.750000
vt 0.379340 0.875868
vt 0.380208 1.000000
vt 0.375000 1.000000
vt 0.369792 0.880208
vt 0.379340 0.374132
vt 0.380208 0.250000
vt 0.369792 0.369792
vt 0.375000 0.250000
vt 0.380208 0.125000
vt 0.380208 0.000000
vt 0.375000 0.125000
vt 0.375000 0.000000
vn -0.9346 0.0559 0.3514
vn -0.8837 0.3520 0.3086
vn -0.8837 0.3520 -0.3086
vn -0.9346 0.0559 -0.3514
vn -0.3514 0.0559 -0.9346
vn -0.3086 0.3520 -0.8837
vn 0.3086 0.3520 -0.8837
vn 0.3514 0.0559 -0.9346
vn 0.9346 0.0559 -0.3514
vn 0.8837 0.3520 -0.3086
vn 0.8837 0.3520 0.3086
vn 0.9346 0.0559 0.3514
vn 0.3514 0.0559 0.9346
vn 0.3086 0.3520 0.8837
vn -0.3086 0.3520 0.8837
vn -0.3514 0.0559 0.9346
vn 0.9289 -0.1240 -0.3488
vn 0.9289 -0.1240 0.3488
vn 0.1822 -0.9817 0.0559
vn 0.1822 -0.9817 -0.0559
vn 0.3061 0.9015 -0.3061
vn -0.3061 0.9015 -0.3061
vn -0.3061 0.9015 0.3061
vn 0.3061 0.9015 0.3061
vn 0.0000 -1.0000 0.0000
vn 0.3488 -0.1240 0.9289
vn -0.3488 -0.1240 0.9289
vn -0.0559 -0.9817 0.1822
vn 0.0559 -0.9817 0.1822
vn -0.3488 -0.1240 -0.9289
vn 0.3488 -0.1240 -0.9289
vn 0.0559 -0.9817 -0.1822
vn -0.0559 -0.9817 -0.1822
vn -0.9289 -0.1240 0.3488
vn -0.9289 -0.1240 -0.3488
vn -0.1822 -0.9817 -0.0559
vn -0.1822 -0.9817 0.0559
usemtl Material
s off
f 1/1/1 14/2/1 33/3/1 13/4/1
f 14/2/2 2/5/2 15/6/2 33/3/2
f 33/3/3 15/6/3 4/7/3 16/8/3
f 13/4/4 33/3/4 16/8/4 3/9/4
f 3/9/5 16/8/5 34/10/5 17/11/5
f 16/8/6 4/7/6 18/12/6 34/10/6
f 34/10/7 18/12/7 8/13/7 19/14/7
f 17/11/8 34/10/8 19/14/8 7/15/8
f 7/15/9 19/14/9 35/16/9 20/17/9
f 19/14/10 8/13/10 21/18/10 35/16/10
f 35/16/11 21/18/11 6/19/11 22/20/11
f 20/17/12 35/16/12 22/20/12 5/21/12
f 5/21/13 22/20/13 36/22/13 23/23/13
f 22/20/14 6/19/14 24/24/14 36/22/14
f 36/22/15 24/24/15 2/25/15 14/26/15
f 23/23/16 36/22/16 14/26/16 1/27/16
f 7/15/17 20/17/17 37/28/17 30/29/17
f 20/17/18 5/21/18 29/30/18 37/28/18
f 37/28/19 29/30/19 12/31/19 27/32/19
f 30/29/20 37/28/20 27/32/20 11/33/20
f 8/13/21 18/34/21 38/35/21 21/18/21
f 18/34/22 4/36/22 15/37/22 38/35/22
f 38/35/23 15/37/23 2/38/23 24/39/23
f 21/18/24 38/35/24 24/39/24 6/19/24
f 9/40/25 26/41/25 39/42/25 25/43/25
f 26/41/25 11/33/25 27/32/25 39/42/25
f 39/42/25 27/32/25 12/31/25 28/44/25
f 25/43/25 39/42/25 28/44/25 10/45/25
f 5/21/26 23/23/26 40/46/26 29/30/26
f 23/23/27 1/27/27 31/47/27 40/46/27
f 40/46/28 31/47/28 10/48/28 28/49/28
f 29/30/29 40/46/29 28/49/29 12/31/29
f 3/9/30 17/11/30 41/50/30 32/51/30
f 17/11/31 7/15/31 30/29/31 41/50/31
f 41/50/32 30/29/32 11/33/32 26/52/32
f 32/51/33 41/50/33 26/52/33 9/53/33
f 1/1/34 13/4/34 42/54/34 31/55/34
f 13/4/35 3/9/35 32/51/35 42/54/35
f 42/54/36 32/51/36 9/53/36 25/56/36
f 31/55/37 42/54/37 25/56/37 10/57/37
